<svg xmlns="http://www.w3.org/2000/svg" width="842" height="160" fill="none"><path fill="#000" d="M223.951 0H0v128.014h31.991V32H191.96v96.014H31.991V160h191.96V31.986 32 0Z"/><path fill="#000" d="m89.367 56.88-22.62 22.628 22.62 22.627 22.621-22.627-22.62-22.628Zm63.986-.011-22.621 22.627 22.621 22.628 22.622-22.628-22.622-22.627Zm148.042-17.225h45.07v112.283h30.689V39.644h45.07V11H301.395v28.644Zm259.794 16.314c0-33.345-10.475-45.013-45.411-45.013h-75.462v140.928h30.137l-.028-50.676h32.783l24.404 50.662h33.746L534.93 97.572c19.379-6.457 26.259-17.515 26.259-41.614Zm-31.694 5.494c0 9.076-7.771 12.53-18.034 12.53l-41.008.015V39.009h41.008c10.263 0 18.034 3.455 18.034 12.531v9.912Zm234.907 61.777V39.604h76.183V10.945H733.713v140.942h108.288v-28.658h-77.599Z"/><path fill="#000" d="m817.975 56.869-22.621 22.627 22.621 22.628 22.621-22.628-22.621-22.627ZM626.982 11l-53.988 140.871h33.407l11.706-33.444h57.103l12.782 33.444h32.076L667.764 11h-40.782Zm.468 82.266 17.552-50.96h3.978l17.793 50.96H627.45Z"/></svg>