<svg xmlns="http://www.w3.org/2000/svg" width="855" height="160" fill="none"><path fill="#0FDC78" d="M.014 0H0v130.323h29.691V160h195.456V0H.014Zm195.442 31.132v99.177H29.691V29.691h165.765v1.441Z"/><path fill="#0FDC78" d="M89.542 58.505 68.547 79.5l20.995 20.995L110.536 79.5 89.542 58.505Zm65.15-.011-20.995 20.994 20.995 20.995 20.995-20.995-20.995-20.994Zm678.109-.012-20.994 20.995 20.994 20.994 20.995-20.995-20.995-20.994ZM306.883 37.474h45.891V151.77h28.365V37.474h45.892V11.2H306.883v26.275Zm261.656 18.063c0-17.382-2.882-28.062-9.368-34.635-6.645-6.745-17.584-9.758-35.442-9.758h-75.395v140.572h27.788l-.028-50.115v-1.441h35.73l.389.821 24.459 50.749h31.147l-25.901-53.199-.72-1.484 1.556-.52c19.011-6.326 25.756-17.064 25.756-40.99h.029Zm-29.402 5.578c0 9.152-7.034 14.197-19.804 14.197h-43.196V36.814h43.196c12.77 0 19.804 5.045 19.804 14.197v10.104Z"/><path fill="#0FDC78" d="M854.452 11.145H747.074V151.73h107.378v-26.289h-79.013V37.435h79.013v-26.29Zm-216.514.055-53.862 140.513h30.887l11.589-33.078.331-.966h60.16l.361.922 12.669 33.122h29.59l-52.19-140.514h-39.535Zm41.582 83.725h-44.104l.663-1.917 17.872-51.873.331-.965h6.126l.332.965 18.117 51.873.663 1.917Z"/></svg>